<svg width="56" height="56" viewBox="0 0 56 56" fill="none" xmlns="http://www.w3.org/2000/svg">
<g clip-path="url(#clip0_314_171664)">
<path fill-rule="evenodd" clip-rule="evenodd" d="M56.0049 24.3157L51.7355 28L56.0049 31.6892L50.928 34.1454L54.095 38.8113L48.554 39.8653L50.4058 45.1936L44.7826 44.7826L45.1936 50.4058L39.8653 48.554L38.8113 54.095L34.1454 50.928L31.6892 56.0049L28 51.7355L24.3157 56.0049L21.8594 50.928L17.1936 54.095L16.1347 48.554L10.8064 50.4058L11.2174 44.7826L5.5942 45.1936L7.44604 39.8653L1.90986 38.8113L5.07685 34.1454L0 31.6892L4.26939 28L0 24.3157L5.07685 21.8594L1.90986 17.1936L7.44604 16.1347L5.5942 10.8064L11.2174 11.2174L10.8064 5.5942L16.1347 7.44604L17.1936 1.90986L21.8594 5.07685L24.3157 0L28 4.26939L31.6892 0L34.1454 5.07685L38.8113 1.90986L39.8653 7.44604L45.1936 5.5942L44.7826 11.2174L50.4058 10.8064L48.554 16.1347L54.095 17.1936L50.928 21.8594L56.0049 24.3157ZM28.043 47.79C25.1404 47.7976 22.2716 47.1667 19.6401 45.9418C17.0085 44.717 14.6786 42.9283 12.8155 40.7025C10.9524 38.4767 9.60176 35.8683 8.85929 33.0622C8.11682 30.2561 8.0007 27.3211 8.51918 24.4651C9.03766 21.6091 10.178 18.9022 11.8595 16.5362C13.5409 14.1701 15.7222 12.2029 18.2488 10.774C20.7754 9.34514 23.5854 8.48952 26.4795 8.26784C29.3737 8.04615 32.2812 8.46383 34.9959 9.49126L33.8016 12.6582C30.3305 11.351 26.5182 11.2622 22.99 12.4066C19.4619 13.551 16.4274 15.8604 14.3844 18.9562C12.3414 22.052 11.4112 25.7501 11.7464 29.4441C12.0817 33.138 13.6624 36.6083 16.2293 39.2857C18.7962 41.9631 22.1969 43.6886 25.8734 44.1792C29.5499 44.6697 33.284 43.8961 36.4631 41.9853C39.6422 40.0746 42.0774 37.1401 43.3694 33.6632C44.6613 30.1864 44.7332 26.3737 43.5734 22.8506L46.7887 21.7869C47.6754 24.5061 47.9644 27.3848 47.6359 30.2261C47.3075 33.0673 46.3692 35.8041 44.8854 38.2493C43.4016 40.6944 41.4072 42.7903 39.0386 44.3935C36.67 45.9968 33.9831 47.0696 31.1617 47.5386C30.1306 47.7065 29.0877 47.7905 28.043 47.79ZM15.6075 26.8153L26.4623 37.6652L43.3947 17.411L38.9416 13.6929L26.0803 29.0781L19.7125 22.7103L15.6075 26.8153Z" fill="#2CC946"/>
<path d="M28.0428 47.7899C25.1402 47.7976 22.2714 47.1666 19.6398 45.9418C17.0083 44.7169 14.6784 42.9282 12.8153 40.7024C10.9522 38.4766 9.60154 35.8682 8.85906 33.0621C8.11659 30.256 8.00048 27.321 8.51896 24.465C9.03743 21.6091 10.1778 18.9021 11.8592 16.5361C13.5407 14.1701 15.722 12.2029 18.2486 10.774C20.7752 9.34506 23.5851 8.48945 26.4793 8.26776C29.3735 8.04608 32.281 8.46376 34.9957 9.49119L33.8014 12.6582C30.3303 11.3509 26.518 11.2622 22.9898 12.4065C19.4616 13.5509 16.4271 15.8604 14.3842 18.9561C12.3412 22.0519 11.411 25.7501 11.7462 29.444C12.0814 33.1379 13.6622 36.6083 16.2291 39.2857C18.796 41.9631 22.1966 43.6886 25.8732 44.1791C29.5497 44.6696 33.2838 43.896 36.4629 41.9853C39.6419 40.0745 42.0772 37.14 43.3691 33.6632C44.6611 30.1863 44.733 26.3736 43.5731 22.8505L46.7885 21.7868C47.6752 24.5061 47.9642 27.3847 47.6357 30.226C47.3072 33.0672 46.369 35.804 44.8852 38.2492C43.4014 40.6944 41.407 42.7902 39.0384 44.3935C36.6698 45.9967 33.9829 47.0695 31.1614 47.5385C30.1304 47.7064 29.0874 47.7905 28.0428 47.7899Z" fill="black" fill-opacity="0.2"/>
<path d="M26.4622 37.6652L15.6074 26.8153L19.7124 22.7103L26.0802 29.0781L38.9416 13.6929L43.3947 17.4111L26.4622 37.6652Z" fill="black" fill-opacity="0.2"/>
</g>
<defs>
<clipPath id="clip0_314_171664">
<rect width="56" height="56" fill="white"/>
</clipPath>
</defs>
</svg>
